<?xml version="1.0" encoding="UTF-8"?>
<svg id="Calque_1" xmlns="http://www.w3.org/2000/svg" version="1.1" viewBox="0 0 178 45">
  <!-- Generator: Adobe Illustrator 29.2.1, SVG Export Plug-In . SVG Version: 2.1.0 Build 116)  -->
  <defs>
    <style>
      .st0 {
        fill-rule: evenodd;
      }

      .st0, .st1 {
        fill: #1d1d1b;
      }
    </style>
  </defs>
  <path class="st1" d="M11.4,29.6c-.6.1-1.3,0-1.9,0-.7-.1-1.3-.3-1.8-.8-.5-.5-.9-1.1-.9-1.8,0-1,.3-1.8.9-2.6.4-.5.7-1.1,1.2-1.5.7-.8,1.5-1.6,2.4-2.2.4-.3.8-.6,1.2-.9.2-.2.5-.3.7-.4,1-.5,2-1,3.1-1.3.4,0,.8,0,1.2.1.5.2.7.6.6,1.1,0,.4-.2.8-.5,1.1-.3.4-.6.8-.9,1.2-.3.4-.7.6-1,.9-.1.1-.3.3-.4.4-.3.3-.8.2-1,0-.3-.3-.2-.8.1-1,.8-.5,1.4-1.2,1.9-2,0-.1.2-.2.2-.4h0c0,0-1.2.3-1.2.3-.2,0-.4.1-.5.2-.5.3-1.1.5-1.5.9-.1.1-.3.2-.4.3l-1.2.9c-.3.2-.6.5-1,.8l-.2.2c-.3.3-.5.6-.8.7-.1,0-.2.1-.2.2-.5.7-1.1,1.4-1.4,2.2-.1.3-.2.6-.2.8,0,.5.1.8.5,1.1l.5.5c.1.2.3.2.5.3.8.2,1.6,0,2.4,0,1-.1,2-.4,3-.6.6-.1,1.2-.2,1.8-.4.7-.2,1.5-.4,2.2-.6.9-.3,1.8-.6,2.8-.9.8-.3,1.6-.7,2.5-1.1.6-.3,1.3-.5,1.8-.8.8-.4,1.7-.7,2.5-1.3l.8-.5c.4-.3.9-.6,1.2-1,.2-.3.5-.3.9-.3.2,0,.3.2.4.4,0,.3,0,.5-.3.6-.3.2-.6.5-.9.7-.7.5-1.5,1-2.2,1.5-.4.2-.7.4-1.1.6-1.1.5-2.3.9-3.4,1.4-.5.2-.9.4-1.4.6-.7.4-1.5.7-2.3.9-.5.2-1,.4-1.5.5-.6.2-1.2.3-1.9.5-.5.1-1,.3-1.5.4-.5.1-1,.3-1.6.3-.2,0-.4,0-.6,0-.6,0-1.1,0-1.6.1Z"/>
  <path class="st1" d="M28.5,28.7c-1.2-.3-1.9-1.2-1.8-2.5,0-.4.1-.7.3-1.1.2-.5.4-.9.7-1.3.3-.4.6-.8.9-1.1.4-.4.8-.7,1.2-1.1.7-.6,1.3-1.1,2.1-1.4h0c.9-.6,1.9-.9,3-.9.6,0,1.1.1,1.6.4.4.2.6.9.5,1.3,0,.5-.3.9-.6,1.2-.7.8-1.6,1.4-2.6,1.8-.4.2-.8.2-1.1,0-.5,0-.7-.7-.5-1,0-.1.2-.3.3-.3.2,0,.4-.1.6,0,.2,0,.4,0,.6-.1.6-.3,1.2-.7,1.6-1.2.2-.2.3-.4.4-.6-.2,0-.3-.1-.4-.1-.7-.1-1.3,0-1.9.3-.2,0-.4.2-.6.3-.9.5-1.8,1.1-2.6,1.8-.3.3-.5.5-.8.8s-.3.4-.6.5c-.5.7-1.1,1.3-1.1,2.2,0,.3.2.6.4.7.5.4,1.2.5,1.8.4.8,0,1.5-.4,2.3-.7.3,0,.6-.2.8-.3.3-.1.6-.3,1-.4.2,0,.3,0,.5-.1.2,0,.4-.2.6-.3.3-.1.5-.2.7-.3.3-.2.6-.3.9-.5l1.5-.7,1.2-.6c.9-.5,1.8-1,2.8-1.5.9-.5,1.7-1,2.5-1.4.7-.4,1.3-.7,1.9-1.1.2-.1.5-.1.7-.1.3,0,.5.3.4.6-.2.4-.4.7-.8.9-.5.2-.9.5-1.3.7-.2,0-.3.2-.5.1-.1,0-.3,0-.4.1-.3.2-.6.4-.8.6-.4.3-.8.5-1.3.8-1,.4-1.9,1-2.9,1.4-.3.2-.6.3-.9.4-1,.4-1.9.8-2.9,1.2-.6.3-1.1.6-1.6.9-.6.3-1.1.6-1.7.7-.5.1-1,.4-1.5.5-.9.2-1.8.2-2.7,0Z"/>
  <path class="st1" d="M47.9,34.2c-.5.2-1-.3-.9-.8,0-.5.2-.9.3-1.4.1-.6.3-1.1.5-1.6l.2-.4.5-1.6c.2-.4.3-.8.4-1.2.3-.8.6-1.6.9-2.4.2-.5.4-.9.5-1.3,0-.1,0-.2,0-.4-.1,0-.2,0-.2,0-.4.4-.8.7-1.3,1-.5.3-.9.6-1.4.9-.6.4-1.1.7-1.7,1-.2.1-.5.2-.8.3-.6.3-1.3.5-1.9.5-.1,0-.2,0-.3,0-1.2-.3-1.6-1.6-1-2.4l.2-.2c.2-.4.5-.8.8-1.1.3-.4.7-.7,1-1.1.2-.2.5-.5.7-.7.3-.3.6-.5.9-.7.5-.3.9-.6,1.3-.9.5-.3,1-.5,1.6-.8.7-.3,1.4-.5,2.1-.6.2,0,.4,0,.6,0,.2,0,.3,0,.5-.1.1-.1.3-.2.5-.3.2,0,.4,0,.6-.1.3-.7.6-1.3,1-1.9.2-.5.5-1,.7-1.5.1-.2.2-.5.3-.7.3-.6.6-1.2.9-1.7l1.1-2.1c0-.1,0-.3,0-.4-.2-.4,0-.7.1-.9.4-.7.9-1.5,1.3-2.2.5-.7.9-1.4,1.4-2.1l1.2-1.8c.2-.4.5-.8.7-1.1.2-.3.5-.4.9-.4.3,0,.5.3.4.6-.1.3-.3.6-.5.8-.5.5-.9,1.1-1.3,1.6-.3.4-.6.8-.8,1.3-.3.6-.7,1.2-1,1.8-.3.6-.6,1.2-.9,1.8l-.8,1.9c-.1.2-.2.5-.3.7-.7,1.3-1.3,2.5-1.9,3.8-.4.8-.8,1.7-1.2,2.5-.5,1.1-1,2.1-1.5,3.1-.4.9-.8,1.8-1.2,2.7-.7,1.7-1.4,3.4-2,5.1-.5,1.2-.8,2.4-.9,3.6,0,.4-.1.7-.2,1.1,0,.3-.1.5-.4.6ZM43.2,25.9c.3,0,.6-.2.9-.3.5-.3.9-.6,1.4-.8.8-.4,1.5-1,2.3-1.5.2-.1.5-.3.7-.5.6-.5,1.2-.9,1.8-1.4.2-.2.5-.4.7-.6.2-.2.3-.3.5-.5h0c-.7-.2-1.3-.2-2,0-.4.2-.8.3-1.2.5-.7.4-1.3.8-1.9,1.2-.4.3-.7.5-1,.8-.8.6-1.5,1.2-2.2,2-.2.2-.3.5-.3.7,0,.3.1.5.4.4Z"/>
  <path class="st1" d="M60.2,29.1c-.3,0-.6,0-.8-.3-.4-.3-.6-.6-.7-1-.2-.7-.1-1.3,0-1.9.2-.6.4-1.2.6-1.9.2-.9.4-1.7.6-2.6,0-.5,0-1.1,0-1.6,0,0,0-.1-.1-.2-.2.2-.3.4-.4.6-.3.4-.5.7-.8,1-.3.3-.5.6-.8.9-.6.6-1.2,1.1-1.8,1.7-.4.4-.8.7-1.3,1-.3.2-.6.3-1,.4-.3,0-.6-.2-.6-.5s.1-.3.3-.4c.4-.2.8-.4,1.2-.6.2,0,.4-.2.5-.3l1.3-1.2c.3-.3.7-.6,1-1,.2-.2.4-.5.6-.8.3-.4.6-.8.8-1.2.1-.2.2-.4.2-.6,0-.1,0-.2-.1-.3-.2-.3-.4-.6-.5-1-.2-.4-.1-.8.1-1.1.4-.6,1.3-.6,1.8-.2,0,0,0,0,.1.1.2.5.3.9.1,1.4v.3c-.2.2-.1.3,0,.5.3.6.5,1.2.6,1.8.1.6,0,1.3,0,1.9,0,.4-.2.8-.3,1.2,0,0,0,0,0,0-.3,1.2-.8,2.3-1,3.4v.4c-.1.5.3,1,.8.9.6,0,1.2-.2,1.8-.5.4-.3.8-.5,1.2-.7.7-.5,1.5-.9,2.2-1.4.6-.4,1.2-.9,1.8-1.4.4-.4.8-.8,1.1-1.2.2-.2.4-.4.6-.7.2-.2.5-.3.7-.2.2.1.3.3.3.5-.1.4-.3.7-.6.9,0,0-.2.1-.2.2-.4.6-.9.9-1.4,1.3-.4.3-.8.6-1.2,1l-1.5,1.1c-.2.1-.3.2-.5.3-.5.3-1,.6-1.5.9-.5.3-1,.5-1.5.7-.5.2-1.1.3-1.6.2Z"/>
  <path class="st1" d="M73.6,19c-.3.2-.8.1-1-.2-.2-.3-.3-.8,0-1.1.3-.4.7-.6,1.1-.6.8-.2,1.6-.3,2.3-.5.5-.1,1-.2,1.4.2.2.1.2.3.3.4,0,.4-.4.8-.7.9-.2,0-.4.1-.6.1l-2.3.5c-.2,0-.3.1-.4.2ZM70.6,28.9c-.8.3-2-.1-2.5-.8-.5-.7-.7-1.4-.6-2.3,0-.4.2-.8.3-1.2.2-.7.6-1.3,1-1.8.5-.8,1.2-1.5,1.9-2.1.3-.2.6-.3.9-.3h.3c.4,0,.6.4.4.7-.1.2-.2.3-.4.5-.4.3-.7.7-1.2.9,0,0-.1.1-.1.2,0,.4-.3.6-.6.9-.3.3-.5.7-.7,1-.3.6-.5,1.3-.7,2-.2.5,0,.9.4,1.2.2.1.4.2.6.2.5,0,1-.1,1.5-.2.5,0,.9-.2,1.3-.4.4-.1.8-.3,1.3-.4,1-.3,1.8-.9,2.7-1.4.8-.5,1.7-1,2.5-1.6.7-.5,1.4-.9,2.1-1.3.4-.2.7-.5,1-.8.3-.2.5-.4.8-.6.2-.2.6-.1.8,0,.2.2.2.5,0,.7-.1.2-.3.3-.5.5-.5.4-1,.7-1.5,1.1-.3.2-.5.4-.8.5-.7.3-1.3.8-1.9,1.2-.9.6-1.8,1.2-2.8,1.6-.8.3-1.5.7-2.3,1-1,.4-2,.6-3,.9-.2,0-.3,0-.5.1Z"/>
  <path class="st1" d="M84.1,29.6c-.6.1-1.3,0-1.9,0-.7-.1-1.3-.3-1.8-.8-.5-.5-.9-1.1-.9-1.8,0-1,.3-1.8.9-2.6.4-.5.7-1.1,1.2-1.5.7-.8,1.5-1.6,2.4-2.2.4-.3.8-.6,1.2-.9.2-.2.5-.3.7-.4,1-.5,2-1,3.1-1.3.4,0,.8,0,1.2.1.5.2.7.6.6,1.1,0,.4-.2.8-.5,1.1-.3.4-.6.8-.9,1.2-.3.4-.7.6-1,.9-.1.1-.3.3-.4.4-.3.3-.8.2-1,0-.3-.3-.2-.8.1-1,.8-.5,1.4-1.2,1.9-2,0-.1.2-.2.2-.4h0c0,0-1.2.3-1.2.3-.2,0-.4.1-.5.2-.5.3-1.1.5-1.5.9-.1.1-.3.2-.4.3l-1.2.9c-.3.2-.6.5-1,.8l-.2.2c-.3.3-.5.6-.8.7-.1,0-.2.1-.2.2-.5.7-1.1,1.4-1.4,2.2-.1.3-.2.6-.2.8,0,.5.1.8.5,1.1l.5.5c.1.2.3.2.5.3.8.2,1.6,0,2.4,0,1-.1,2-.4,3-.6.6-.1,1.2-.2,1.8-.4.7-.2,1.5-.4,2.2-.6.9-.3,1.8-.6,2.8-.9.8-.3,1.6-.7,2.5-1.1.6-.3,1.3-.5,1.8-.8.8-.4,1.7-.7,2.5-1.3l.8-.5c.4-.3.9-.6,1.2-1,.2-.3.5-.3.9-.3.2,0,.3.2.4.4,0,.3,0,.5-.3.6-.3.2-.6.5-.9.7-.7.5-1.5,1-2.2,1.5-.4.2-.7.4-1.1.6-1.1.5-2.3.9-3.4,1.4-.5.2-.9.4-1.4.6-.7.4-1.5.7-2.3.9-.5.2-1,.4-1.5.5-.6.2-1.2.3-1.9.5-.5.1-1,.3-1.5.4-.5.1-1,.3-1.6.3-.2,0-.4,0-.6,0-.6,0-1.1,0-1.6.1Z"/>
  <path class="st1" d="M98.7,43.7c-.8.5-1.4.3-1.9-.3,0,0-.1-.2-.2-.2-.1-.7-.2-1.3,0-2,.1-.4.1-.9.2-1.3,0-.4.2-.9.3-1.3.2-.7.4-1.4.6-2.2.1-.4.2-.7.3-1l.2-.7c0-.2.2-.5.3-.7.3-.8.5-1.6.7-2.4.1-.4.3-.8.4-1.1.4-1.1.8-2.3,1.2-3.4.1-.3.3-.7.5-1l.4-1.2c0,0,0-.2,0-.3,0-.3,0-.5.2-.7.4-.3.5-.7.7-1,.4-.7.7-1.5,1-2.3.4-1,.9-2,1.3-2.9l1-2c.4-.7.7-1.3,1.1-2l.7-1.4c.4-.6.7-1.1,1.1-1.7.2-.2.3-.5.4-.7.4-.6.8-1.1,1.2-1.6.2-.2.5-.4.8-.4.4,0,.7.4.5.7,0,.2-.2.3-.3.5-.1.2-.3.4-.4.5-.2.2-.3.3-.5.3-.2,0-.3.2-.4.3-.2.4-.4.7-.6,1.1l-.6,1.1c-.3.5-.5.9-.8,1.4-.1.2-.2.4-.5.5-.1,0-.2.2-.2.3l-.6,1.1c0,.2-.2.3-.2.4-.3.7-.6,1.5-1,2.2-.7,1.4-1.3,2.9-1.8,4.4,0,.2-.1.4-.2.7.1,0,.2,0,.3,0,.4,0,.8-.2,1.1-.3,0,0,.1,0,.1,0,.7,0,1.2-.3,1.8-.4,6.6-1.4,15.3-2.6,16-2.8.4,0,.8-.2,1.2-.3.3,0,.4,0,.6.2.2.3.2.5-.2.6-.4.2-.9.3-1.3.4-.3.1-.7.1-1,.2-4.9.7-11,1.9-15.5,2.7-.3.1-.5.2-.8.2-.2,0-.4,0-.4.2,0,.2,0,.3.2.4.3.3.5.6.5,1.1,0,.2.1.3.1.5,0,.2,0,.4,0,.6,0,.4,0,.8,0,1.2,0,.8-.2,1.4-.4,2.2-.2.8-.5,1.6-.7,2.5-.3.8-.6,1.6-1,2.4-.4.8-.8,1.6-1.1,2.5,0,.1-.1.2-.2.3-.4.6-.7,1.3-1.1,1.9-.2.4-.5.8-.8,1.2-.4.6-.8,1.1-1.2,1.7-.3.4-.7.8-1.1,1ZM98,43.2c.2-.1.3-.2.4-.4.9-1.1,1.7-2.3,2.5-3.6.7-1.1,1.3-2.2,1.8-3.4.5-1,.9-2,1.3-3.1.3-.9.5-1.7.7-2.6.1-.5.2-1,.3-1.5,0-.7.2-1.3,0-2-.2-.6-.4-1.2-1.1-1.5-.6-.2-1,0-1.2.7,0,.2-.1.4-.2.6-.2.5-.4,1-.6,1.4-.2.5-.4,1.1-.6,1.6-.5,1.5-1,3-1.6,4.5-.2.5-.3,1-.5,1.6,0,.2-.2.5-.3.7-.3.9-.6,1.7-.8,2.5-.2.7-.4,1.5-.5,2.2-.1.6-.2,1.2-.3,1.7,0,0,0,.2,0,.3,0,.3.4.5.6.3Z"/>
  <path class="st1" d="M121,28.7c-1.3,0-2-1-2.1-2.1,0-.9.3-1.7.8-2.5.2-.4.5-.8.7-1.2.2-.2.3-.4.5-.5.3-.2.5-.5.8-.7.3-.2.6-.5.9-.6.4-.2.9-.3,1.3-.5,0-.1,0-.2,0-.3,0-.4.3-.7.7-.7.6,0,1.3,0,1.9.1.6,0,1.1.2,1.6.2,1.2,0,2.5,0,3.7,0s4.6,0,5.3,0c.8,0,1.6,0,2.4-.1.4,0,.7,0,1.1,0s.3,0,.4,0c.3.1.4.3.3.6,0,.2-.3.5-.5.5-.5,0-.9.1-1.4,0-.2,0-.4,0-.6,0-.7,0-1.3,0-5.4,0h0c-.7.1-1.4.1-2.1,0-.4,0-.8,0-1.2,0-.1,0-.3,0-.5.1l.2.8c.1.3,0,.7,0,1-.1.3-.2.6-.4.8,0,0-.1.2-.1.2,0,.3-.3.5-.5.7-.2.2-.4.5-.7.7-.6.5-1.1,1-1.7,1.4-.9.6-1.9,1.2-3,1.5-.7.2-1.4.4-2.1.3ZM120.8,27.7c.8.1,1.4-.2,2.1-.5.7-.3,1.3-.7,2-1,.4-.3.9-.6,1.3-.9.5-.5.9-1,1.4-1.5.3-.4.6-.9.8-1.4,0-.3,0-.5-.3-.7-.1,0-.2-.1-.3-.2-.3-.1-.7-.2-1-.2-.2,0-.4,0-.6,0-.4,0-.8,0-1.1.4,0,0-.1.1-.2.2-.3.2-.5.4-.8.4s-.7,0-1,.3c-.4.3-.9.6-1.3,1-.6.5-.9,1.1-1.2,1.8-.2.4-.4.9-.5,1.4-.2.6.2,1.1.8,1.1Z"/>
  <path class="st1" d="M127.5,43.3c-.3-.2-.4-.6-.2-1,.4-.7.8-1.3,1.2-1.9.8-1.2,1.5-2.5,2.4-3.7l1.7-2.9c.3-.5.7-1,1-1.6.7-1.1,1.3-2.3,2-3.5.6-1,1.1-2,1.7-3,1.1-2,2.2-4,3.4-5.9.6-1,1.1-1.9,1.7-2.8.2-.3.3-.7.5-1,.6-1,1.2-1.9,1.7-2.9.3-.4.5-.9.8-1.3.2-.2.3-.4.4-.7h-.4c-.6,0-1.1,0-1.7,0-.5,0-1,0-1.5,0-1.2,0-2.3,0-3.4-.1-.5,0-1,0-1.5,0-1,0-2,0-3,0-.8,0-1.6.1-2.4.2-1.2.1-2.4.1-3.5,0-.2,0-.3-.1-.4-.2-.3-.2-.3-.5,0-.7.3-.3.6-.4,1-.4.8,0,1.7.1,2.5.1,0,0,.2,0,.2,0,1.1,0,2.2,0,3.2-.1.7,0,1.4,0,2.2,0h.6c.7,0,1.4-.1,2.1-.1,1.1,0,2.2,0,3.3,0,.2,0,.5,0,.7,0,.9,0,1.8,0,2.8,0s.4-.1.5-.3c.8-1.3,1.7-2.6,2.4-4,.3-.6.8-1.2,1.1-1.7.2-.3.3-.7.4-1.1,0,0,0-.1,0-.1-.5-.6-.5-.8,0-1.4.4-.4.7-.8,1.2-.9.3,0,.5,0,.7.2.2.3.3.5.2.8-.3.7-.5,1.4-.9,2.1-.5.9-1,1.8-1.5,2.7l-1.4,2.4c-.2.3-.4.6-.6.9-.1.2-.2.3-.3.5h3.3c.3,0,.5,0,.8,0,.4,0,.9,0,1.3,0,.8,0,1.7,0,2.6,0h2.5c1,0,2.1,0,3.1,0,2.2,0,4.4,0,6.5,0s.5,0,.8.1c.4.2.5.5.3.9-.3.5-.7.5-1.2.5-.7,0-1.4,0-2.1,0s-.9,0-1.3,0c-1.1-.2-2.2-.3-3.3-.3-1.2,0-2.4,0-3.6-.1-1,0-2,0-3,0-1.8,0-3.7,0-5.5.1-.1,0-.3,0-.4,0-.5,0-1,.1-1.4.3-.1,0-.2.2-.3.3-.7,1.1-1.3,2.2-1.9,3.2-.6,1.1-1.3,2.1-2,3.1-.4.6-.8,1.1-1.2,1.7-.4.6-.7,1.1-1,1.7-.4.6-.7,1.2-1.1,1.8-.5.9-1,1.8-1.5,2.7-.3.5-.6.9-.8,1.4-.5.9-1,1.8-1.5,2.8-.2.4-.4.7-.6,1-.7,1.1-1.3,2.3-1.9,3.4-.6,1-1.2,1.9-1.7,2.9-.4.8-.8,1.6-1.2,2.3-.3.6-.7,1.1-1,1.7-.2.4-.4.7-.6,1-.2.3-.4.7-.6.9-.3.4-.6.4-1,.2Z"/>
  <path class="st1" d="M138.7,40.3c-.9.1-1.9.2-2.8-.3-.5-.3-1-.6-1.2-1.2-.2-.5-.3-1-.3-1.5,0-.9.2-1.7.6-2.5.3-.6.5-1.1.9-1.6.5-.7,1-1.4,1.5-2,.5-.5,1-1,1.4-1.5.5-.5,1-.9,1.5-1.3.7-.6,1.4-1,2.1-1.5.8-.6,1.8-1,2.7-1.5l.5-.3c0-.3-.1-.7-.2-1-.1-.5-.1-1,0-1.5,0-.3.1-.5.2-.8.3-.8.7-1.4,1.2-2.1.6-.6,1.1-1.2,1.7-1.8,0,0,.2-.1.2-.2.2-.2.4-.3.6-.5l.2-.2c.4-.2.8-.5,1.2-.7.6-.2,1.1-.3,1.6.2.1.1.2.3.2.4,0,.4-.1.8-.3,1.1-.3.6-.8,1.2-1.3,1.6-.3.3-.6.6-.9.9-.5.5-1.1.9-1.7,1.4-.3.3-.6.6-1,.8-.3.2-.7.4-1,.7,0,.3.1.6.2,1,.5-.2,1-.4,1.4-.6.9-.4,1.9-.8,2.9-1.2.5-.2,1.1-.4,1.6-.6,3-1,3.3-1.1,3.7-1.2.4-.1.7-.3,1.1-.3,2.5-.7,2.8-.8,3-.8.3,0,.5.2.6.4,0,.2-.2.5-.5.6-.3,0-.6.2-3.2.9-.7,0-1.4.3-4.7,1.4-1.2.4-2.4.9-3.5,1.5l-1.7.8-.2.2c.1.3.2.6.3.8.4.7.6,1.5.8,2.3,0,.3.2.6.2.8,0,.4,0,.8.1,1.3,0,.2,0,.3,0,.4s0,.2,0,.2c-.2.7-.3,1.3-.6,1.9-.2.5-.5,1-.9,1.5-.5.8-1.2,1.4-1.9,2.1-.5.5-1.1.9-1.7,1.2-.4.3-.9.6-1.3.8-.5.3-1,.4-1.5.7,0,0-.2,0-.2.1-.3.1-.5.2-.7.3-.4.1-.7.2-1,.3ZM147,22.1c.5-.4.9-.7,1.4-1,.9-.7,1.6-1.4,2.4-2.2.4-.5.8-.9,1.1-1.6-.2,0-.4,0-.5.1-.6.3-1.2.7-1.7,1.1-.9.9-1.8,1.8-2.4,2.9-.1.2-.3.4-.3.7ZM137.8,39.5c.8,0,1.7-.1,2.4-.5.5-.2,1-.5,1.5-.8.7-.4,1.3-.7,1.9-1.1.4-.2.7-.5.9-.7.4-.4.9-.8,1.2-1.3.1-.2.3-.4.5-.6.8-1.2,1.3-2.5,1.2-3.9,0-1-.3-2-.7-2.9,0,0,0-.1,0-.2-.2-.4-.3-.8-.5-1.3l-.5.2c-.8.2-1.5.6-2.1,1.1-.2.2-.5.3-.7.5-.6.4-1.2.9-1.8,1.3-.7.6-1.3,1.2-2,1.8-.9.8-1.5,1.6-2.2,2.6-.1.2-.2.3-.3.5-.3.6-.6,1.3-.8,1.9-.3.7-.4,1.4-.2,2.2.1.5.4.8.8,1,.5.3,1,.3,1.5.3Z"/>
  <path class="st1" d="M157.7,28.7c-1.3,0-2-1-2.1-2.1,0-.9.3-1.7.8-2.5.2-.4.5-.8.7-1.2.2-.2.3-.4.5-.5.3-.2.5-.5.8-.7.3-.2.6-.5.9-.6.4-.2.9-.3,1.3-.5,0-.1,0-.2,0-.3,0-.4.3-.7.7-.7.6,0,1.3,0,1.9.1.6,0,1.1.2,1.6.2,1.2,0,2.5,0,3.7,0s4.6,0,5.3,0c.8,0,1.6,0,2.4-.1.4,0,.7,0,1.1,0s.3,0,.4,0c.3.1.4.3.3.6,0,.2-.3.5-.5.5-.5,0-.9.1-1.4,0-.2,0-.4,0-.6,0-.7,0-1.3,0-5.4,0h0c-.7.1-1.4.1-2.1,0-.4,0-.8,0-1.2,0-.1,0-.3,0-.5.1l.2.8c.1.3,0,.7,0,1-.1.3-.2.6-.4.8,0,0-.1.2-.1.2,0,.3-.3.5-.5.7-.2.2-.4.5-.7.7-.6.5-1.1,1-1.7,1.4-.9.6-1.9,1.2-3,1.5-.7.2-1.4.4-2.1.3ZM157.5,27.7c.8.1,1.4-.2,2.1-.5.7-.3,1.3-.7,2-1,.4-.3.9-.6,1.3-.9.5-.5.9-1,1.4-1.5.3-.4.6-.9.8-1.4,0-.3,0-.5-.3-.7-.1,0-.2-.1-.3-.2-.3-.1-.7-.2-1-.2-.2,0-.4,0-.6,0-.4,0-.8,0-1.1.4,0,0-.1.1-.2.2-.3.2-.5.4-.8.4s-.7,0-1,.3c-.4.3-.9.6-1.3,1-.6.5-.9,1.1-1.2,1.8-.2.4-.4.9-.5,1.4-.2.6.2,1.1.8,1.1Z"/>
  <path class="st1" d="M175.8,27.7c-.5,0-.8-.4-.8-.8,0-.3.2-.5.4-.7,0-.1.2-.2.2-.3,0-.4.6-.6.8-.3.2.2.4.4.5.6,0,.1,0,.3,0,.5,0,.2-.2.4-.3.6-.2.3-.5.5-.8.5Z"/>
  <path class="st0" d="M91.1,32.8L0,36.9v-.5s91.1-4,91.1-4v.5Z"/>
</svg>